<svg class="icon" viewBox="0 0 1024 1024" xmlns="http://www.w3.org/2000/svg" width="200" height="200"><path d="M708.5 567.2c6.2-12.3 1.3-27.4-11-33.6-33.7-17-68.9-29.2-105.3-36.5 81.7-32.9 139.3-112.9 139.3-206.4 0-122.8-99.6-222.4-222.4-222.4s-222.4 99.6-222.4 222.4c0 93.5 57.7 173.5 139.4 206.4-20.7 4.2-41 9.9-60.9 17.2-44.5 16.3-85.6 39.9-122.3 70.2C169.2 645.3 118.1 730 99.1 823.1c-2.8 13.5 6 26.7 19.5 29.5 1.7.3 3.4.5 5 .5 11.6 0 22-8.2 24.5-20 34.9-170.5 186.7-294.2 361-294.2 58.4 0 114.2 13.2 165.9 39.3 12.3 6.3 27.3 1.3 33.5-11zm-199.4-104c-46.1 0-89.4-17.9-121.9-50.5-32.6-32.6-50.5-75.9-50.5-121.9s17.9-89.4 50.5-121.9c32.6-32.6 75.9-50.5 121.9-50.5s89.4 17.9 121.9 50.5c32.6 32.6 50.5 75.9 50.5 121.9s-17.9 89.4-50.5 121.9c-32.6 32.6-75.9 50.5-121.9 50.5zM918 684H816V582c0-13.8-11.2-25-25-25s-25 11.2-25 25v102H664c-13.8 0-25 11.2-25 25s11.2 25 25 25h102v102c0 13.8 11.2 25 25 25s25-11.2 25-25V734h102c13.8 0 25-11.2 25-25s-11.2-25-25-25z"/></svg>