<svg class="icon" viewBox="0 0 1024 1024" xmlns="http://www.w3.org/2000/svg" width="48" height="48"><path d="M807.309 710.104v-.002c-13.682-.057-24.82 10.988-24.878 24.67v185.871c0 21.194-16.124 37.317-37.315 37.317H104.737c-21.194 0-37.316-16.124-37.316-37.317V105.2c0-21.193 16.124-37.316 37.316-37.316h640.839c21.193 0 37.315 16.124 37.315 37.316v74.176a24.775 24.775 0 0 0 24.878 24.877 24.775 24.775 0 0 0 24.879-24.877V104.74c0-48.374-38.238-86.612-86.613-86.612h-641.3c-48.374 0-86.613 38.237-86.613 86.612v814.063c0 48.374 38.238 86.612 86.613 86.612h640.839c48.374 0 86.612-38.237 86.612-86.612V733.138c.001-11.977-11.056-23.034-24.877-23.034z"/><path d="M535.495 376.093c0-13.821-9.675-24.878-24.877-24.878h-332.63a24.774 24.774 0 0 0-24.877 24.878 24.774 24.774 0 0 0 24.878 24.878h332.629c13.36-.46 24.877-11.518 24.877-24.878zM694.9 191.352c-.001-13.821-9.677-24.877-24.879-24.877H177.99c-13.821 0-24.878 11.056-24.878 24.877s11.057 24.878 24.878 24.878h493.414c12.44 0 23.496-11.056 23.496-24.878zM177.988 536.878c-13.822 0-24.878 11.056-24.878 24.877s11.056 24.878 24.878 24.878h246.014c13.822 0 24.878-11.056 24.878-24.878s-9.675-24.877-24.878-24.877H177.988zM989.286 379.783l.002-.003-12.439-29.485-107.804 104.12c-9.675 9.675-23.495 14.742-37.316 14.742-13.82 0-27.182-5.067-37.316-14.742-9.675-9.675-14.742-22.114-14.742-35.936s5.067-25.798 14.742-34.551l107.805-104.12-30.868-12.438c-25.799-9.675-54.361-16.124-82.927-16.124-58.047 0-111.491 21.194-152.032 60.813-60.812 58.048-79.24 146.042-48.373 222.52L382.542 733.6c-16.124 16.124-25.799 37.316-25.799 59.432s8.754 43.305 25.799 59.432c16.124 16.123 38.238 24.877 61.733 24.877 23.494 0 44.688-8.754 61.732-24.877L712.404 653.44c24.877 8.754 52.059 13.821 77.856 13.821 58.048 0 111.492-21.193 152.032-60.813 61.734-59.891 80.624-148.805 46.994-226.665zm-76.473 195.33v.002c-32.25 30.868-75.558 48.374-121.164 48.374-25.801 0-50.678-5.067-74.177-16.124l-13.819-5.987-228.97 218.833c-16.123 16.124-44.687 16.124-60.812 0-7.37-7.369-12.439-17.506-12.439-28.562 0-11.057 5.068-21.194 12.439-28.563l228.968-220.217-5.987-13.822c-30.867-63.115-17.507-138.673 33.632-185.663 32.249-30.867 75.557-48.374 121.163-48.374 11.058 0 21.194 1.382 32.25 2.303l-58.049 54.361c-18.427 17.507-28.562 41.003-28.562 65.42 0 24.877 9.675 48.373 28.562 65.419 18.429 17.506 41.924 27.182 68.187 27.182 26.262 0 49.294-9.676 68.185-27.182l58.048-55.744c9.214 54.361-7.834 110.106-47.455 148.344z"/></svg>