<svg class="icon" viewBox="0 0 1024 1024" xmlns="http://www.w3.org/2000/svg" width="64" height="64"><path d="M835 227.12a118.1 118.1 0 0 0-118.11-118H268.68A118 118 0 0 0 150.8 221.34v580.85a117.92 117.92 0 0 0 117.78 112.14H431.7v-59.76a112.59 112.59 0 0 1 32.11-78.74L835 396.4zM489 458.31A30.64 30.64 0 0 1 458.36 489h-117.2a30.64 30.64 0 0 1-30.64-30.64 30.64 30.64 0 0 1 30.64-30.64h117.2A30.64 30.64 0 0 1 489 458.31zM659 283a30.64 30.64 0 0 1-30.64 30.64h-287.2A30.64 30.64 0 0 1 310.52 283a30.64 30.64 0 0 1 30.64-30.64h287.2A30.64 30.64 0 0 1 659 283zM544.6 823a22.35 22.35 0 0 0-6.47 15.73V892a22.36 22.36 0 0 0 22.35 22.36h53.39a22.36 22.36 0 0 0 15.88-6.62L869 666.14l-84.88-85zm389.07-253l-51-51a21.67 21.67 0 0 0-15.76-6.55 22.8 22.8 0 0 0-15.75 6.55l-40.25 40.26L895.79 644l37.89-42.73a21.93 21.93 0 0 0 6.55-15.66 22.39 22.39 0 0 0-6.56-15.61z"/></svg>