<svg class="icon" viewBox="0 0 1084 1024" xmlns="http://www.w3.org/2000/svg" width="128" height="128"><path d="M1066.006 855.864c-6.15-19.607-27.16-31.078-47.715-26.057-20.555 5.027-33.39 24.78-29.144 44.847a440.583 440.583 0 0 1 12.428 71.402H81.012c20.065-227.348 217.361-406.443 457.466-407.845.947 0 1.839.271 2.786.271 153.908 0 278.672-120.547 278.672-269.242C819.936 120.541 695.172 0 541.264 0 387.36 0 262.59 120.541 262.59 269.24c0 89.28 45.536 167.845 114.815 216.847C158.868 553.345.028 751.235.028 984.397c0 21.162 17.778 38.34 39.683 38.34h1003.22c21.916 0 39.679-17.168 39.679-38.34a507.485 507.485 0 0 0-16.604-128.533zM541.264 80.826c107.57 0 195.069 84.544 195.069 188.468 0 103.929-87.5 188.467-195.07 188.467-107.564 0-195.07-84.538-195.07-188.467 0-103.924 87.507-188.468 195.07-188.468zm0 0"/><path d="M938.877 630.51H541.264c-23.085 0-41.8 18.081-41.8 40.384s18.715 40.384 41.8 40.384h397.612l-73.181 70.704c-15.85 15.843-15.638 41.031.478 56.616 16.122 15.587 42.193 15.818 58.6.52l144.516-139.63c7.846-7.576 12.252-17.851 12.252-28.568 0-10.713-4.406-20.989-12.252-28.564l-144.516-139.63c-16.329-15.776-42.803-15.776-59.137 0-16.329 15.775-16.329 41.354 0 57.13l73.241 70.653zm0 0"/></svg>