<svg class="icon" viewBox="0 0 1024 1024" xmlns="http://www.w3.org/2000/svg" width="64" height="64"><path d="M768 512c-84.48 0-158.72 40.96-204.8 103.68-16.64 0-33.28-1.28-51.2-1.28-335.36 0-512 133.12-512 384 0 14.08 11.52 25.6 25.6 25.6H768c140.8 0 256-115.2 256-256S908.8 512 768 512zM52.48 972.8C64 769.28 218.88 665.6 512 665.6h21.76A253.44 253.44 0 0 0 512 768c0 83.2 40.96 157.44 103.68 204.8H52.48zm715.52 0c-112.64 0-204.8-92.16-204.8-204.8 0-40.96 11.52-78.08 33.28-110.08 1.28-1.28 2.56-2.56 2.56-5.12 37.12-53.76 98.56-89.6 168.96-89.6 112.64 0 204.8 92.16 204.8 204.8S880.64 972.8 768 972.8z"/><path d="M665.6 755.2h204.8c10.24 0 19.2-6.4 23.04-15.36 3.84-8.96 1.28-20.48-5.12-28.16l-76.8-76.8c-10.24-10.24-25.6-10.24-35.84 0s-10.24 25.6 0 35.84L808.96 704H665.6c-14.08 0-25.6 11.52-25.6 25.6s11.52 25.6 25.6 25.6zm204.8 25.6H665.6c-10.24 0-19.2 6.4-23.04 15.36-3.84 8.96-1.28 20.48 5.12 28.16l76.8 76.8c5.12 5.12 11.52 7.68 17.92 7.68s12.8-2.56 17.92-7.68c10.24-10.24 10.24-25.6 0-35.84L727.04 832H870.4c14.08 0 25.6-11.52 25.6-25.6s-11.52-25.6-25.6-25.6zM176.64 125.44l92.16 20.48V294.4c0 134.4 108.8 243.2 243.2 243.2s243.2-108.8 243.2-243.2V145.92l92.16-20.48c11.52-2.56 20.48-12.8 20.48-25.6s-7.68-21.76-20.48-24.32L517.12 0h-10.24l-217.6 48.64-112.64 25.6c-11.52 2.56-20.48 12.8-20.48 25.6s7.68 21.76 20.48 25.6zm330.24 74.24h10.24L704 157.44V268.8H320V157.44l186.88 42.24zM512 486.4c-97.28 0-177.92-72.96-190.72-166.4h380.16C689.92 413.44 609.28 486.4 512 486.4zm0-433.92l213.76 48.64L512 148.48 299.52 99.84h-2.56L512 52.48z"/></svg>