<svg class="icon" viewBox="0 0 1024 1024" xmlns="http://www.w3.org/2000/svg" width="128" height="128"><path d="M869.2 844.1H154.8c-10.4 0-18.8-8.4-18.8-18.8s8.4-18.8 18.8-18.8h12.5v-564c0-34.6 28.1-62.7 62.7-62.7h313.3c34.6 0 62.7 28.1 62.7 62.7v125.3h188c34.6 0 62.7 28.1 62.7 62.7v376h12.5c10.4 0 18.8 8.4 18.8 18.8s-8.4 18.8-18.8 18.8zM342.8 298.9h-87.7v87.7h87.7v-87.7zm0 178.6h-87.7v87.7h87.7v-87.7zm0 178.6h-87.7v87.7h87.7v-87.7zm175.5-357.2h-87.7v87.7h87.7v-87.7zm0 178.6h-87.7v87.7h87.7v-87.7zm0 178.6h-87.7v87.7h87.7v-87.7zm263.2-175.4h-87.7v87.7h87.7v-87.7zm0 175.4h-87.7v87.7h87.7v-87.7z"/></svg>