<svg class="icon" viewBox="0 0 1024 1024" xmlns="http://www.w3.org/2000/svg" width="128" height="128"><path d="M605.867 981.333V746.667c0-51.84-33.622-93.867-75.094-93.867h-37.546c-41.472 0-75.094 42.027-75.094 93.867v234.666H268.672a85.333 85.333 0 0 1-85.205-84.992V512h657.066v384.341c0 46.934-38.186 84.992-85.205 84.992H605.867zM185.13 511.787H89.6a46.933 46.933 0 0 1-29.013-83.883l422.4-375.21a46.933 46.933 0 0 1 58.026 0L963.371 428.16A46.933 46.933 0 0 1 934.357 512l-90.709-.213H185.173z"/></svg>