<svg class="icon" viewBox="0 0 1024 1024" xmlns="http://www.w3.org/2000/svg" width="200" height="200"><path d="M416.313 918.544l42.711-145.465c4.477-15.381 13.295-29.214 25.612-40.22l109.487-108.477c-8.751-3.231-17.468-6.328-26.152-9.189-5.452-1.783-40.118-17.4-18.444-83.2h-.336c56.41-58.093 99.557-151.624 99.557-243.676 0-141.563-94.172-215.743-203.558-215.743-109.452 0-203.019 74.18-203.019 215.743 0 92.421 42.879 186.325 99.624 244.282 22.079 58.025-17.434 79.566-25.714 82.594-114.567 41.433-248.994 116.96-248.994 191.508v27.936c0 95.755 175.018 121.738 347.78 124.396-2.491-13.26-2.458-27.06 1.446-40.489zm397.221-258.721l-.2.201-33.456-33.522.167-.203-44.796-44.762-203.76 201.975c-2.83 2.255-5.184 5.116-6.261 8.819l-42.745 145.635a18.043 18.043 0 0 0 4.544 17.904 18.09 18.09 0 0 0 12.824 5.317 17.4 17.4 0 0 0 5.048-.74L650.6 917.668c3.467-1.009 6.16-3.163 8.314-5.721l204.299-202.48-49.68-49.644zM614.587 827.638l2.66 46.916 11.78 11.747-78.354 22.987-17.064-17.063 22.988-78.354 9.828 9.828 48.162 3.939zm139.174-266.43l127.963 127.931 29.282-27.431-127.964-127.965zm190.9-1.851l-61.357-61.29c-16.93-16.93-44.19-17.099-60.951-.337l-18.815 19.016 122.613 122.647 18.813-19.05c16.73-16.728 16.592-44.023-.303-60.986z"/></svg>