<svg class="icon" viewBox="0 0 1024 1024" xmlns="http://www.w3.org/2000/svg" width="200" height="200"><path d="M936.2 861.3H640.9c-13.3 0-24 10.7-24 24s10.7 24 24 24h295.3c13.3 0 24-10.7 24-24s-10.7-24-24-24zm0-115.5H640.9c-13.3 0-24 10.7-24 24s10.7 24 24 24h295.3c13.3 0 24-10.7 24-24s-10.7-24-24-24zm-319.3-91.6c0 13.3 10.7 24 24 24h295.3c13.3 0 24-10.7 24-24s-10.7-24-24-24H640.9c-13.3 0-24 10.8-24 24z"/><path d="M512.3 861.2H156c-23.8 0-43.2-19.1-43.2-42.5 0-203.2 164.3-345.1 399.5-345.1 81.3 0 153.3 46.8 154 47.3 11.1 7.3 26 4.2 33.2-6.8 7.3-11.1 4.2-26-6.8-33.2-2.4-1.6-43.7-28.4-101.4-44.1 52.4-37.2 86.7-98.4 86.7-167.6 0-113.5-92-205.4-205.4-205.4s-205.4 92-205.4 205.4c0 74.1 39.2 139 98 175.1-10.9 2.9-21.6 6.2-32.1 9.8-54.1 18.6-101.8 45.7-141.9 80.5-40.3 35.1-71.7 77.2-93.2 124.9-22 48.8-33.2 102.4-33.2 159.2 0 49.9 40.9 90.5 91.2 90.5h356.3c13.3 0 24-10.7 24-24s-10.7-24-24-24zm-197-592.1c0-42 16.4-81.6 46.1-111.3 29.7-29.7 69.3-46.1 111.3-46.1S554.3 128 584 157.8c29.7 29.7 46.1 69.3 46.1 111.3s-16.4 81.6-46.1 111.3c-29.7 29.7-69.3 46.1-111.3 46.1s-81.6-16.4-111.3-46.1c-29.8-29.7-46.1-69.3-46.1-111.3z"/></svg>