<svg class="icon" viewBox="0 0 1024 1024" xmlns="http://www.w3.org/2000/svg" width="128" height="128"><path d="M583.999 481.548c57.999-26.4 94.898-83.6 94.898-147.099 0-89.798-68.399-154.398-158.398-154.398s-158.997 65.2-158.997 154.898c0 65.6 38.099 119.499 98.698 145.099 26.4 11.3 80.1 16.7 123.799 1.5zM446.6 537.847c-3.3-1.1-7-1.8-10.3-3.2-80.298-33.8-136.498-112.299-136.498-199.198 0-118.998 92.4-219.697 220.397-219.697 130.699 0 220.398 100.399 220.398 219.297 0 84.2-53.4 161.998-130.199 197.098-59.699 26-119.198 20.5-163.798 5.7zM202.404 926.642c-28.9-.1-58.9-13.1-74.1-37-14.7-23.1-12.9-55.499-1.3-80.199 40.3-85.999 145.799-230.797 399.995-234.697 261.397-4.8 356.496 150.298 389.895 242.697 8.8 24.3 10.2 46.4-4.3 72.9-17.1 27.499-46.699 34.199-74.099 34.199h-66.299c-14.7 0-26.4-15-26.4-29.7s12-27.9 26.6-27.9h67.9c10.2 0 15.5-.2 21.1-8.1 2.9-4.1 6.299-13.2 2.4-23.899-34.9-96.499-128.9-201.597-338.397-201.597-205.897 0-293.096 105.498-338.395 193.297-3.9 8.3-4.7 20.3.3 28 5.4 8.5 11.5 12.2 22.1 12.2h450.794c14.7 0 27.7 14.6 27.7 29.3 0 14.7-12 30.399-26.7 30.399"/></svg>