<svg class="icon" viewBox="0 0 1024 1024" xmlns="http://www.w3.org/2000/svg" width="200" height="200"><path d="M949.862 831.386a36.352 36.352 0 0 0-26.419 44.185 430.08 430.08 0 0 1 11.367 67.891H89.19c18.432-216.064 199.527-386.304 419.994-387.737.973 0 1.843.256 2.816.256a256 256 0 1 0-256-256c0 84.89 41.78 159.59 105.42 206.131-200.754 64-346.674 252.109-346.674 473.805 0 20.121 16.332 36.454 36.454 36.454h921.6a36.454 36.454 0 0 0 36.454-36.454c0-41.216-5.12-82.279-15.206-122.163a36.045 36.045 0 0 0-44.186-26.368zM512 120.832c98.816 0 179.2 80.384 179.2 179.2s-80.384 179.2-179.2 179.2-179.2-80.384-179.2-179.2 80.384-179.2 179.2-179.2z"/><path d="M671.898 627.507a38.4 38.4 0 1 0-54.324-54.323l-132.71 132.762a38.4 38.4 0 0 0 0 54.323L617.626 893.03a38.298 38.298 0 0 0 54.272 0 38.4 38.4 0 0 0 0-54.323l-67.226-67.225h365.26a38.4 38.4 0 0 0 0-76.8h-365.26l67.226-67.175z"/></svg>