<svg class="icon" viewBox="0 0 1024 1024" xmlns="http://www.w3.org/2000/svg" width="200" height="200"><path d="M752.9 618.7c20 0 29-25.3 13.4-37.9-42-34-91-59.7-144.5-74.8 74.3-39.4 124.9-117.4 124.9-207.3C746.7 169.1 641.6 64 512 64S277.3 169.1 277.3 298.7c0 90 50.7 168 125 207.4C231.9 553.9 106.7 710.2 106.7 896c0 15.5 1.1 30.7 2.9 45.7 1.3 10.5 10.5 18.3 21.1 18.3 12.5 0 22.6-10.8 21.1-23.3-1.6-13.4-2.5-26.9-2.5-40.7 0-200.3 162.4-362.7 362.7-362.7 86.3 0 165.5 30.3 227.7 80.6 3.8 3.1 8.4 4.8 13.2 4.8zM320 298.7c0-106 86-192 192-192s192 86 192 192-86 192-192 192-192-86-192-192zm576 512h-85.3v-85.3c0-11.7-9.6-21.3-21.3-21.3-11.7 0-21.3 9.6-21.3 21.3v85.3h-85.3c-11.7 0-21.3 9.6-21.3 21.3s9.6 21.3 21.3 21.3H768v85.3c0 11.7 9.6 21.3 21.3 21.3 11.7 0 21.3-9.6 21.3-21.3v-85.3H896c11.7 0 21.3-9.6 21.3-21.3s-9.6-21.3-21.3-21.3z"/></svg>