<svg class="icon" viewBox="0 0 1024 1024" xmlns="http://www.w3.org/2000/svg" width="400" height="400"><path d="M510.08 476.288c-102.08 0-185.152-90.496-185.152-201.792 0-111.232 83.008-201.792 185.152-201.792s185.152 90.56 185.152 201.792c0 111.296-83.072 201.792-185.152 201.792zm0-339.776c-69.76 0-126.592 61.952-126.592 137.984 0 76.096 56.768 137.984 126.592 137.984s126.592-61.888 126.592-137.984c0-76.032-56.704-137.984-126.592-137.984zm181.696 812.736H332.16a137.28 137.28 0 0 1-108.544-52.608 137.344 137.344 0 0 1-25.92-117.76l22.016-117.76c20.352-85.312 88.96-130.432 192-130.432a31.936 31.936 0 0 1 0 63.808c-42.688 0-111.872 6.144-129.536 79.872l-22.016 117.76c-5.696 23.872-.64 46.976 13.568 65.024s35.52 28.352 58.496 28.352H691.84c22.912 0 44.224-10.368 58.432-28.352S769.6 816 764.16 793.664l-22.656-120.768c-17.344-72.256-86.784-83.264-129.408-83.264a32 32 0 0 1 0-63.872c102.976 0 171.776 49.984 191.808 133.696l22.656 120.896a136.32 136.32 0 0 1-26.176 116.224 137.472 137.472 0 0 1-108.608 52.672z"/></svg>