<svg class="icon" viewBox="0 0 1024 1024" xmlns="http://www.w3.org/2000/svg" width="200" height="200"><path d="M804.392 22.903H149.753c-54.398 0-98.65 44.256-98.65 98.654v777.936c0 54.398 44.252 98.65 98.65 98.65h366.46c18.8 0 34.099-15.296 34.099-34.094 0-18.735-15.3-33.973-34.098-33.973h-366.46c-16.794 0-30.452-13.718-30.452-30.582V121.56c0-16.863 13.658-30.586 30.451-30.586H804.26c16.865 0 30.582 13.723 30.582 30.586v313.918c0 18.802 15.298 34.1 34.101 34.1 18.802 0 34.097-15.298 34.097-34.1v-313.92c.001-54.398-44.251-98.654-98.648-98.654z"/><path d="M622.353 359.924H248.499c-18.808 0-34.104 15.296-34.104 34.1 0 18.801 15.296 34.098 34.104 34.098h373.854c18.8 0 34.094-15.297 34.094-34.099.002-18.803-15.294-34.1-34.094-34.1zM248.499 513.582c-18.808 0-34.104 15.3-34.104 34.101 0 18.8 15.296 34.098 34.104 34.098h160.784c18.806 0 34.102-15.3 34.102-34.098 0-18.803-15.298-34.101-34.102-34.101H248.5zm373.854-301.64H248.499c-18.808 0-34.104 15.298-34.104 34.1s15.296 34.1 34.104 34.1h373.854c18.8 0 34.094-15.298 34.094-34.1.002-18.804-15.294-34.1-34.094-34.1zM770.468 536.535c-111.625 0-202.436 90.816-202.436 202.436 0 111.618 90.811 202.431 202.436 202.431 111.62 0 202.431-90.813 202.431-202.431 0-111.62-90.811-202.436-202.43-202.436zm0 351.317c-82.095 0-148.89-66.787-148.89-148.883 0-82.044 66.795-148.783 148.89-148.783 82.037 0 148.783 66.74 148.783 148.783 0 82.096-66.746 148.883-148.783 148.883z"/><path d="M859.57 744.126h-62.387v-90.108c0-14.792-12.033-26.825-26.823-26.825-14.792 0-26.824 12.033-26.824 26.825v116.933c0 14.79 12.032 26.829 26.824 26.829h89.208c14.792 0 26.825-12.038 26.825-26.829.002-14.79-12.033-26.825-26.823-26.825z"/></svg>